<svg data-name="Layer 1" xmlns="http://www.w3.org/2000/svg" width="890.106" height="611.972"><path d="M312.076 549.793l.28-1.112c.061-.244 6.366-24.577 25.396-37.79 19.03-13.213 44.032-10.616 44.282-10.588l1.14.126-.28 1.112c-.062.244-6.366 24.576-25.396 37.79-19.031 13.213-44.033 10.616-44.283 10.588zm26.816-37.259c-16.09 11.171-22.792 30.594-24.27 35.49 5.106.324 25.66.824 41.735-10.337 16.073-11.16 22.788-30.591 24.27-35.49-5.108-.323-25.66-.823-41.735 10.337z" fill="#f1f1f1"/><path d="M345.802 518.44c-9.598 20.968-32.21 31.178-32.21 31.178s-7.05-23.787 2.548-44.756 32.21-31.179 32.21-31.179 7.05 23.787-2.548 44.756z" fill="#f1f1f1"/><path d="M102.16 542.21c-10.35-31.83-11.198-68.002 6.293-97.532 7.436-12.554 17.886-23.394 30.704-30.48 14.785-8.174 31.852-10.847 48.55-11.216 36.305-.8 72.365 7.969 108.674 3.435 16.29-2.034 32.54-6.597 46.505-15.446 12.074-7.652 22.554-18.359 28.738-31.344a57.36 57.36 0 003.842-39.854c-3.432-12.593-11.509-24.367-23.32-30.396-10.73-5.478-23.903-5.623-34.991-1.093-11.928 4.874-20.517 14.956-22.344 27.86-2.28 16.097 4.968 32.023 13.037 45.496 7.766 12.97 17.18 25.142 28.62 35.083 11.081 9.63 24.148 17.221 38.52 20.594 13.635 3.2 28.341 2.917 41.595-1.809a59.165 59.165 0 0032.024-27.392c7.758-14.033 10.467-30.247 10.2-46.132-.314-18.761-4.273-37.334-7.808-55.691q-5.376-27.929-11.556-55.695-3.012-13.534-6.214-27.025c-.445-1.877-3.338-1.082-2.892.798 8.488 35.797 16.423 71.88 22.445 108.184 2.858 17.232 4.648 35.106 1.064 52.373-3.022 14.56-9.805 28.677-21.405 38.311-22.135 18.384-55.153 16.056-78.845 2.183-12.777-7.481-23.616-17.96-32.59-29.67-9.277-12.103-17.917-25.946-21.833-40.805-2.022-7.673-2.597-15.862-.263-23.535a30.765 30.765 0 0110.15-14.992c9.008-7.31 21.745-9.934 33.004-7.47 12.685 2.774 22.498 12.32 27.765 23.932a53.342 53.342 0 011.786 38.867c-4.542 13.424-13.961 24.898-25.285 33.242-12.89 9.499-28.252 14.886-43.94 17.541-35.195 5.957-70.55-1.833-105.812-2.548-16.069-.326-32.54.91-47.726 6.527a81.546 81.546 0 00-34.627 24.752c-20.066 24.343-25.62 56.646-20.87 87.268a157.09 157.09 0 005.911 24.478c.595 1.828 3.492 1.045 2.893-.798z" fill="#e5e5e5"/><path fill="#efa2b4" d="M90.106 534.972h19v15h-19z"/><path d="M431.979 203.94h338.887c64.198 0 116.24-36.59 116.24-100.788 0-64.197-52.042-90.955-116.24-90.955H664.46c-128.395 0-232.48 63.348-232.48 191.743z" fill="#fff"/><path d="M770.866 206.94H428.98v-3c0-61.43 23.956-112.059 69.28-146.41 41.718-31.62 99.189-48.333 166.2-48.333h106.407c34.373 0 63.39 7.589 83.914 21.945 23.44 16.397 35.326 40.624 35.326 72.01 0 31.467-12.154 58.02-35.148 76.792-21.325 17.409-51.19 26.996-84.092 26.996zm-335.869-6h335.87c67.732 0 113.24-39.298 113.24-97.788 0-79.385-79.193-87.955-113.24-87.955H664.458c-110.14 0-227.773 48.864-229.462 185.743z" fill="#e5e5e5"/><path fill="#efa2b4" d="M587.145 72.118h40.028v9.636h-40.028zM751.702 72.118h14.084v9.636h-14.084zM779.87 72.118h14.084v9.636H779.87zM641.256 72.118h95.621v9.636h-95.621zM536.74 134.383h40.028v9.636H536.74zM701.297 134.383h14.084v9.636h-14.084zM729.465 134.383h14.084v9.636h-14.084zM590.851 134.383h95.621v9.636h-95.621zM702.039 93.614h40.028v9.636h-40.028zM756.15 93.614h40.028v9.636H756.15zM810.261 93.614h14.084v9.636h-14.084zM564.907 93.614h14.084v9.636h-14.084zM593.075 93.614h95.621v9.636h-95.621zM619.019 114.369h40.028v9.636h-40.028zM564.907 114.369h40.028v9.636h-40.028zM810.261 114.369h14.084v9.636h-14.084zM782.094 114.369h14.084v9.636h-14.084zM672.389 114.369h95.621v9.636h-95.621z"/><path d="M382 550.972H1a1 1 0 010-2h381a1 1 0 010 2zM231 611.972H114a1 1 0 010-2h117a1 1 0 110 2z" fill="#cbcbcb"/><path d="M120.421 337.489a13.75 13.75 0 00-4.482-20.601l7.248-48.321-23.036 10.68-3.351 44.248a13.824 13.824 0 0023.621 13.994zM190.07 594.085l-16.58-.001-7.887-63.951 24.47.001-.003 63.951z" fill="#ffb7b7"/><path d="M194.299 610.157l-53.461-.002v-.676a20.81 20.81 0 0120.808-20.808H194.3z" fill="#2f2e41"/><path fill="#ffb7b7" d="M249.331 555.947l-15.484 5.964-30.371-56.884 22.852-8.802 23.003 59.722z"/><path d="M259.061 569.435l-49.925 19.23-.243-.632a20.825 20.825 0 0111.946-26.917h.001l30.493-11.745zM141.884 299.94l-4.685 27.026 74.959 228.003 40.017-12.216-28.594-84.096-28.894-124.695-.626-44.446-52.177 10.424z" fill="#2f2e41"/><path fill="#2f2e41" d="M158.371 581.952l13.499-92.314-2.177-17.422 24.368-53.478-2.808-126.752 53.137 7.954-20.809 163.261-27.1 95.885-5.444 20.688-32.666 2.178z"/><circle cx="166.537" cy="50.048" r="30.488" fill="#ffb8b8"/><path d="M196.629 17.608A37.581 37.581 0 00175.25 1.266l-6.536 5.228 2.541-6.098a34.597 34.597 0 00-6.46-.374l-5.88 7.561 2.433-7.302a37.222 37.222 0 00-25.677 15.274c-7.485 10.792-6.984 25.794.378 36.671 2.02-6.21 2.71-12.03 4.73-18.241a18.382 18.382 0 004.788.023l2.459-5.737.687 5.495c7.62-.664 18.923-2.122 26.148-3.457l-.703-4.215 4.203 3.502c2.214-.51 3.528-.971 3.42-1.325 5.372 8.662 10.696 14.195 16.07 22.857 2.039-12.218 5.64-22.374-1.223-33.52z" fill="#2f2e41"/><path d="M225.768 88.396s-58.06-5.16-83.472 15.93l-7.88 189.08 4.346 14.756s20.782 4.147 46-3.007 59.628 3.007 59.628 3.007l3.7-115.78z" fill="#cbcbcb"/><path d="M140.294 296.911l18.119-183.943-3.42-15.86s-34.956 9.872-47.694 28.618l22.99 159.4v14.814zM221.524 284.696s-48.61-164.897-31.166-195.025c0 0 35.089-9.895 51.855 2.31l9.286 101.277s18.63 57.907 4.344 71.525l3.135 13.618s-19.06 1.123-23.14 1.65-14.314 4.645-14.314 4.645z" fill="#3f3d56"/><path d="M118.137 124.635l-10.838 1.091s-3.895 2.116-3.416 11.52-11.245 147.211-5.383 156.16l-3.394 11.672 23.955 6.533 1.423-11.671s9.704-30.167 10.946-37.83-13.293-137.475-13.293-137.475z" fill="#3f3d56"/><path d="M237.076 282.403a13.75 13.75 0 0115.86-13.891l22.923-43.15 12.161 22.288-23.632 37.56a13.824 13.824 0 01-27.312-2.807z" fill="#ffb7b7"/><path d="M228.216 97.33l12.908-5.35s21.018 11.425 22.703 22.703 43.28 84.294 43.28 84.294-14.872 65.002-28.234 68.946l-7.261 8.013-20.063-12.927 6.5-6.5s-.17-34.386 5.824-40.546c0 0-16.872-43.18-24.494-47.536S228.216 97.33 228.216 97.33z" fill="#3f3d56"/></svg>